<svg width="72" height="71" viewBox="0 0 72 71" fill="none" xmlns="http://www.w3.org/2000/svg">
<g clip-path="url(#clip0)">
<path d="M62.2444 0.105133C50.1256 0.105133 40.2664 9.92922 40.2664 22.0044V24.2576H42.5277C54.6464 24.2576 64.5056 14.4335 64.5056 2.35831V0.105133H62.2444Z" fill="#00C063"/>
<path d="M22.455 7.25967H20.1939V9.51285C20.1939 21.5883 30.0532 31.4123 42.1717 31.4123H44.4329V29.1591C44.4331 17.0839 34.5738 7.25967 22.455 7.25967Z" fill="#00C063"/>
<path d="M60.7864 46.6167C57.2137 42.6466 51.2341 36.0019 43.7377 35.3812C32.2307 34.4285 24.6902 41.0429 24.3746 41.3248L25.7659 42.8701H25.766L27.1571 44.4152C27.17 44.4038 27.4434 44.1639 27.9513 43.7955L35.8878 47.1567L43.3799 50.5387L44.6512 56.6571L58.9235 50.7463C59.1448 50.9812 59.3518 51.1937 59.5442 51.3796L62.4439 48.3983C62.0317 48.0006 61.4548 47.3591 60.7864 46.6167Z" fill="#2B7A4B"/>
<path d="M70.9052 51.0826C70.1882 49.3638 68.8425 48.026 67.1159 47.3158C65.3892 46.6056 63.4885 46.6078 61.7632 47.3222L46.4292 53.6723C46.4436 52.7458 46.2725 51.8158 45.9134 50.9261C45.1842 49.12 43.7842 47.7273 41.9709 47.0042L27.8355 41.3662C24.7056 40.1169 21.2657 40.1393 18.1493 41.4294L11.1331 44.335L11.9327 46.252L11.9439 47.0028L11.9327 47.0104L12.0517 58.6545L11.2713 60.5794L34.2039 69.8094C35.7705 70.4382 37.4132 70.7525 39.0556 70.7525C40.7448 70.7525 42.4331 70.4202 44.0371 69.7559L67.1311 60.192C68.8561 59.4776 70.1986 58.1368 70.9114 56.4163C71.6243 54.6956 71.6221 52.8016 70.9052 51.0826Z" fill="#F9D5A5"/>
<path d="M11.9909 52.7008L12.0516 52.5507L11.987 46.2294L11.9327 46.252L11.9439 47.0029L11.9327 47.0104L11.9909 52.7008Z" fill="#F9BE77"/>
<path d="M14.0163 38.7486H0.333374V66.6047H14.0163V38.7486Z" fill="#32B768"/>
<path d="M14.1552 35.8231H9.98865V68.1589H14.1552V35.8231Z" fill="white"/>
<path d="M56.1807 10.77L53.1691 7.90112L40.2666 21.382V24.1615L31.5306 15.0562L28.5188 17.9252L40.2666 30.1694V37.3609H44.4331V23.014L56.1807 10.77Z" fill="#73E6A1"/>
</g>
<defs>
<clipPath id="clip0">
<rect width="71.1111" height="70.8571" fill="white" transform="translate(0.333374)"/>
</clipPath>
</defs>
</svg>
